:SAMPLES-PER-SECOND 30
:FULLY-SPECIFIED
:DEGREES
330
root  -39.1334 40.4952 27.3597 -3.91092 73.5595 -5.5733
RightUpLeg  8.5813 -10.6014 -6.37122
RightLeg  5.71744 -15.5282 5.02699
RightFoot  -11.2722 -0.0835756 11.0067
RightToes  -5.8209e-011 0 -3.6325e-017
Spine  7.23701 1.92409 13.4952
Spine1  4.78395 4.41312 -8.32003
HEad  16.0306 42.2864 141.937
LeftShoulder1  8.05069 -11.4848 -46.8569
LeftArm  -5.99951 24.8829 -18.0166
LeftForeArm  22.7738 -11.3671 -5.55958
LeftHand  -0.244104 0.0205437 5.32207
RightShoulder  5.44413 8.91936 37.7866
RightArm  -1.75206 0.225332 26.8498
RightForeArm  1.65479 31.5742 6.84921
RightHand  -0.276531 -2.66416 -11.4085
LeftUpLeg  -29.7704 17.9805 -9.46973
LeftLeg  30.5152 1.74009 1.79924
LeftFoot  -2.12659 0.0238801 -0.130768
LeftToes  1.76439e-010 -1.07097e-011 2.32476e-011
331
root  -38.0999 40.3811 28.1258 -4.58347 74.515 -6.33721
RightUpLeg  11.4049 -9.52782 -5.08923
RightLeg  3.72319 -17.5333 4.82948
RightFoot  -11.4136 -0.0708869 10.9951
RightToes  -5.8209e-011 0 -3.6325e-017
Spine  7.11145 2.27324 13.7076
Spine1  5.14248 4.93689 -9.04136
HEad  22.3991 38.3783 150.108
LeftShoulder1  7.86284 -11.3009 -46.3176
LeftArm  -6.95203 26.8901 -17.452
LeftForeArm  21.5786 -9.61772 -5.40316
LeftHand  -0.244104 0.0205437 5.32207
RightShoulder  5.42017 8.927 37.5749
RightArm  -2.36534 0.363194 26.6734
RightForeArm  2.27287 33.4203 7.30196
RightHand  -0.310209 -2.34223 -11.542
LeftUpLeg  -28.4402 20.3289 -11.3471
LeftLeg  17.8549 3.32162 -0.0696362
LeftFoot  -1.33784 0.0425272 -0.401528
LeftToes  1.76439e-010 -1.07097e-011 2.32476e-011
332
root  -36.954 40.163 28.8495 -6.13602 75.256 -7.66633
RightUpLeg  14.4165 -9.16226 -4.42919
RightLeg  2.66485 -18.0068 5.23131
RightFoot  -12.1141 -0.00313415 11.5871
RightToes  -5.8209e-011 0 -3.6325e-017
Spine  7.28109 2.4213 13.7962
Spine1  5.28627 5.31008 -9.62868
HEad  23.0822 37.3701 150.368
LeftShoulder1  7.65457 -11.0595 -45.8222
LeftArm  -7.22873 29.358 -17.1433
LeftForeArm  20.162 -8.68872 -5.16439
LeftHand  -0.244104 0.0205437 5.32207
RightShoulder  5.45379 8.99809 37.5948
RightArm  -2.1863 0.199882 26.6464
RightForeArm  2.69169 34.3021 7.51914
RightHand  -0.322948 -2.17232 -11.4109
LeftUpLeg  -24.5504 11.1329 -6.23017
LeftLeg  5.98701 18.3038 -5.1111
LeftFoot  -1.03986 -0.00916062 0.183692
LeftToes  1.76439e-010 -1.07097e-011 2.32476e-011
333
root  -35.66 39.8424 29.5398 -8.53653 76.267 -9.80205
RightUpLeg  17.1633 -9.59175 -4.41358
RightLeg  3.18854 -17.4634 5.93194
RightFoot  -13.009 0.0977875 12.7824
RightToes  -5.8209e-011 0 -3.6325e-017
Spine  7.02283 2.36478 13.6654
Spine1  5.46838 5.32065 -9.88581
HEad  22.7029 36.7839 149.477
LeftShoulder1  7.45885 -10.8377 -45.3224
LeftArm  -7.29532 31.867 -17.1267
LeftForeArm  19.3256 -8.05508 -4.92086
LeftHand  -0.244104 0.0205437 5.32207
RightShoulder  5.52431 9.07431 37.8809
RightArm  -1.47152 -0.19258 26.9121
RightForeArm  2.63599 33.9973 7.4394
RightHand  -0.333452 -2.14025 -11.6768
LeftUpLeg  -22.3136 1.68562 -2.3194
LeftLeg  -1.85641 31.2662 -9.80721
LeftFoot  -2.24039 -0.0459862 0.723293
LeftToes  1.76439e-010 -1.07097e-011 2.32476e-011
334
root  -34.1768 39.4941 30.2108 -11.2215 77.2983 -12.2859
RightUpLeg  19.4843 -10.2555 -4.73069
RightLeg  5.16863 -16.7954 6.27359
RightFoot  -13.213 0.137947 13.8823
RightToes  -5.8209e-011 0 -3.6325e-017
Spine  5.92228 2.42328 13.368
Spine1  6.05016 5.35719 -9.95659
HEad  19.0441 37.9716 144.881
LeftShoulder1  7.25769 -10.6548 -44.6408
LeftArm  -7.22899 34.005 -17.4493
LeftForeArm  19.1831 -7.27828 -4.71819
LeftHand  -0.244104 0.0205437 5.32207
RightShoulder  5.56853 9.05631 38.2803
RightArm  -0.519772 -1.24091 27.5065
RightForeArm  2.41328 32.7629 7.11868
RightHand  -0.360289 -1.98435 -12.0862
LeftUpLeg  -21.7689 1.81587 -3.29458
LeftLeg  -1.24688 30.6045 -9.20152
LeftFoot  -3.95578 -0.00315702 0.45256
LeftToes  1.76439e-010 -1.07097e-011 2.32476e-011
335
root  -32.5022 39.1602 30.8678 -11.6566 77.5151 -12.4283
RightUpLeg  21.8643 -12.0546 -6.51969
RightLeg  7.9278 -13.4936 6.15364
RightFoot  -12.7774 0.113797 15.814
RightToes  -5.8209e-011 0 -3.6325e-017
Spine  4.27897 2.97669 12.4209
Spine1  6.90728 5.8678 -9.95692
HEad  26.8956 29.5107 161.049
LeftShoulder1  7.01712 -10.401 -43.9137
LeftArm  -7.03724 35.7675 -17.8115
LeftForeArm  19.2981 -6.21322 -4.56712
LeftHand  -0.244104 0.0205437 5.32207
RightShoulder  5.64289 9.03642 38.9145
RightArm  0.881467 -3.16631 28.1315
RightForeArm  2.48244 30.7728 6.59917
RightHand  -0.381201 -1.6885 -11.8118
LeftUpLeg  -21.3008 3.47545 -4.88868
LeftLeg  3.17786 26.9146 -6.64441
LeftFoot  -4.11345 -0.127574 2.33066
LeftToes  1.76439e-010 -1.07097e-011 2.32476e-011
